<?xml version="1.0" standalone="no"?>
<!DOCTYPE svg PUBLIC "-//W3C//DTD SVG 20010904//EN"
 "http://www.w3.org/TR/2001/REC-SVG-20010904/DTD/svg10.dtd">
<svg version="1.0" xmlns="http://www.w3.org/2000/svg"
 width="512.000000pt" height="512.000000pt" viewBox="0 0 512.000000 512.000000"
 preserveAspectRatio="xMidYMid meet">

<g transform="translate(0.000000,512.000000) scale(0.100000,-0.100000)"
fill="#000000" stroke="none">
<path d="M1790 4787 c-335 -270 -643 -519 -1000 -806 -113 -91 -210 -172 -217
-181 -16 -19 -19 -3145 -3 -3155 10 -6 176 -39 680 -135 91 -17 183 -35 205
-40 38 -8 127 -7 380 6 132 7 186 11 243 20 l42 6 0 883 c0 733 2 886 14 897
23 24 184 4 523 -63 91 -18 83 81 83 -1010 l0 -969 23 -10 c12 -5 72 -18 132
-30 151 -28 385 -72 600 -114 161 -31 194 -34 310 -31 259 8 398 16 416 25 10
6 31 10 48 10 l31 0 0 1550 0 1550 -182 218 c-100 119 -211 251 -246 292 -36
41 -74 86 -86 100 -12 14 -116 138 -232 275 -774 921 -743 885 -775 885 -16 0
-44 8 -62 17 -33 17 -82 27 -197 41 -36 4 -71 11 -77 15 -7 4 -22 3 -33 -3
-16 -9 -28 -7 -52 5 -22 10 -35 12 -42 5 -13 -13 -42 -13 -66 2 -15 9 -24 9
-43 -1 -18 -10 -30 -10 -45 -2 -11 6 -27 11 -34 11 -7 0 -159 -118 -338 -263z"/>
</g>
</svg>
